<svg width="238" height="89" viewBox="0 0 238 89" fill="none" xmlns="http://www.w3.org/2000/svg">
<path d="M0 16.1C0 10.4051 0 7.55764 1.12587 5.39026C2.07462 3.56382 3.56382 2.07462 5.39026 1.12587C7.55764 0 10.4051 0 16.1 0H196.895C199.78 0 201.222 0 202.551 0.374199C203.68 0.691999 204.744 1.20588 205.695 1.89235C206.814 2.70064 207.711 3.83014 209.504 6.08914L232.052 34.4891C234.92 38.1015 236.354 39.9077 236.891 41.9128C237.345 43.6077 237.345 45.3923 236.891 47.0872C236.354 49.0923 234.92 50.8985 232.052 54.5109L209.504 82.9109C207.711 85.1699 206.814 86.2994 205.695 87.1077C204.744 87.7941 203.68 88.308 202.551 88.6258C201.222 89 199.78 89 196.895 89H16.1C10.4051 89 7.55764 89 5.39026 87.8741C3.56382 86.9254 2.07462 85.4362 1.12587 83.6097C0 81.4424 0 78.5949 0 72.9V16.1Z" fill="#F5F5F5"/>
</svg>
