<svg width="238" height="89" viewBox="0 0 238 89" fill="none" xmlns="http://www.w3.org/2000/svg">
<path d="M0 16.1C0 10.4051 0 7.55764 1.12587 5.39026C2.07462 3.56382 3.56382 2.07462 5.39026 1.12587C7.55764 0 10.4051 0 16.1 0H196.895C199.78 0 201.222 0 202.551 0.374199C203.68 0.691999 204.744 1.20588 205.695 1.89235C206.814 2.70064 207.711 3.83014 209.504 6.08914L232.052 34.4891C234.92 38.1015 236.354 39.9077 236.891 41.9128C237.345 43.6077 237.345 45.3923 236.891 47.0872C236.354 49.0923 234.92 50.8985 232.052 54.5109L209.504 82.9109C207.711 85.1699 206.814 86.2994 205.695 87.1077C204.744 87.7941 203.68 88.308 202.551 88.6258C201.222 89 199.78 89 196.895 89H16.1C10.4051 89 7.55764 89 5.39026 87.8741C3.56382 86.9254 2.07462 85.4362 1.12587 83.6097C0 81.4424 0 78.5949 0 72.9V16.1Z" fill="#FFA77B" fill-opacity="0.25"/>
<path d="M0.5 16.1C0.5 13.2442 0.500402 11.1328 0.639018 9.46369C0.777137 7.80052 1.04989 6.62117 1.56957 5.62074C2.47089 3.88563 3.88563 2.47089 5.62074 1.56957C6.62117 1.04989 7.80052 0.777137 9.46369 0.639018C11.1328 0.500402 13.2442 0.5 16.1 0.5H196.895C199.808 0.5 201.168 0.504387 202.415 0.855489C203.488 1.1574 204.499 1.64558 205.402 2.29773C206.452 3.05613 207.302 4.11877 209.113 6.40003L231.66 34.8C233.099 36.612 234.161 37.9499 234.932 39.0848C235.7 40.2143 236.16 41.1146 236.408 42.0421C236.839 43.6523 236.839 45.3477 236.408 46.9579C236.16 47.8854 235.7 48.7857 234.932 49.9152C234.161 51.0501 233.099 52.388 231.66 54.2L209.113 82.6C207.302 84.8812 206.452 85.9439 205.402 86.7023C204.499 87.3544 203.488 87.8426 202.415 88.1445C201.168 88.4956 199.808 88.5 196.895 88.5H16.1C13.2442 88.5 11.1329 88.4996 9.46369 88.361C7.80052 88.2229 6.62117 87.9501 5.62074 87.4304L5.39026 87.8741L5.62074 87.4304C3.88563 86.5291 2.47089 85.1144 1.56957 83.3793C1.04989 82.3788 0.777137 81.1995 0.639018 79.5363C0.500402 77.8671 0.5 75.7558 0.5 72.9V16.1Z" stroke="#FFA77B" stroke-opacity="0.35"/>
</svg>
