<svg width="current" height="current" viewBox="0 0 14 14" fill="none" xmlns="http://www.w3.org/2000/svg">
<mask id="mask0_1_4520" style="mask-type:alpha" maskUnits="userSpaceOnUse" x="0" y="0" width="14" height="14">
<rect width="14" height="14" fill="#D9D9D9"/>
</mask>
<g mask="url(#mask0_1_4520)">
<path d="M5.59437 7.14146L9.98845 11.5355C10.1044 11.6514 10.1608 11.7879 10.1578 11.945C10.1548 12.102 10.0954 12.2385 9.97946 12.3544C9.86355 12.4703 9.72707 12.5283 9.57002 12.5283C9.41297 12.5283 9.27649 12.4703 9.16058 12.3544L4.68574 7.88856C4.58028 7.78311 4.50212 7.66495 4.45127 7.53408C4.40042 7.4032 4.375 7.27233 4.375 7.14146C4.375 7.01058 4.40042 6.87971 4.45127 6.74883C4.50213 6.61796 4.58028 6.4998 4.68574 6.39435L9.16058 1.91951C9.27649 1.80359 9.41447 1.74713 9.57451 1.75011C9.73455 1.75311 9.87253 1.81256 9.98845 1.92848C10.1044 2.0444 10.1623 2.18088 10.1623 2.33792C10.1623 2.49498 10.1044 2.63146 9.98845 2.74738L5.59437 7.14146Z" fill="#50545E"/>
</g>
</svg>
