<svg width="25" height="24" viewBox="0 0 25 24" fill="none" xmlns="http://www.w3.org/2000/svg">
<g id="bookmark">
<mask id="mask0_1_4912" style="mask-type:alpha" maskUnits="userSpaceOnUse" x="0" y="0" width="25" height="24">
<rect id="Bounding box" x="0.5" width="24" height="24" fill="#D9D9D9"/>
</mask>
<g mask="url(#mask0_1_4912)">
<path id="bookmark_2" d="M12.5 17.4615L8.53078 19.1653C7.92823 19.423 7.35581 19.3736 6.81351 19.0172C6.27119 18.6608 6.00003 18.1595 6.00003 17.5134V5.3077C6.00003 4.80257 6.17503 4.375 6.52503 4.025C6.87503 3.675 7.3026 3.5 7.80773 3.5H17.1923C17.6974 3.5 18.125 3.675 18.475 4.025C18.825 4.375 19 4.80257 19 5.3077V17.5134C19 18.1595 18.7288 18.6608 18.1865 19.0172C17.6442 19.3736 17.0718 19.423 16.4692 19.1653L12.5 17.4615Z" fill="#FF743D"/>
</g>
</g>
</svg>
