<svg width="21" height="22" viewBox="0 0 21 22" fill="none" xmlns="http://www.w3.org/2000/svg">
<g id="import_contacts">
<mask id="mask0_1_3643" style="mask-type:alpha" maskUnits="userSpaceOnUse" x="0" y="0" width="21" height="22">
<rect id="Bounding box" y="0.5" width="21" height="21" fill="#D9D9D9"/>
</mask>
<g mask="url(#mask0_1_3643)">
<path id="import_contacts_2" d="M5.68746 14.517C6.41215 14.517 7.1172 14.5992 7.80262 14.7636C8.48803 14.9279 9.1684 15.1856 9.84373 15.5367V6.93482C9.22898 6.53434 8.56376 6.23399 7.84805 6.03374C7.13234 5.8335 6.41215 5.73338 5.68746 5.73338C5.16246 5.73338 4.67195 5.7746 4.21595 5.85704C3.75994 5.93949 3.29131 6.07439 2.81006 6.26172C2.74275 6.28417 2.69507 6.31643 2.66702 6.3585C2.63898 6.40057 2.62496 6.44684 2.62496 6.49732V14.7728C2.62496 14.8513 2.653 14.9088 2.70909 14.9453C2.76519 14.9817 2.8269 14.9859 2.89422 14.9579C3.30927 14.8165 3.74733 14.7077 4.20838 14.6314C4.66943 14.5552 5.16246 14.517 5.68746 14.517ZM11.1562 15.5367C11.8315 15.1856 12.5119 14.9279 13.1973 14.7636C13.8827 14.5992 14.5878 14.517 15.3125 14.517C15.8375 14.517 16.3305 14.5552 16.7915 14.6314C17.2526 14.7077 17.6906 14.8165 18.1057 14.9579C18.173 14.9859 18.2347 14.9817 18.2908 14.9453C18.3469 14.9088 18.375 14.8513 18.375 14.7728V6.49732C18.375 6.44684 18.3609 6.40197 18.3329 6.3627C18.3048 6.32343 18.2572 6.28977 18.1898 6.26172C17.7086 6.07439 17.24 5.93949 16.784 5.85704C16.328 5.7746 15.8375 5.73338 15.3125 5.73338C14.5878 5.73338 13.8676 5.8335 13.1519 6.03374C12.4362 6.23399 11.7709 6.53434 11.1562 6.93482V15.5367ZM10.5 17.0949C10.3294 17.0949 10.1699 17.0736 10.0212 17.0309C9.87261 16.9883 9.73211 16.9317 9.59973 16.861C8.99733 16.52 8.36715 16.2628 7.70921 16.0895C7.05128 15.9162 6.37736 15.8295 5.68746 15.8295C5.15349 15.8295 4.62906 15.8887 4.11416 16.007C3.59925 16.1254 3.10286 16.2995 2.62498 16.5295C2.31313 16.6731 2.01642 16.6504 1.73484 16.4613C1.45328 16.2723 1.3125 16.0045 1.3125 15.6578V6.15742C1.3125 5.96896 1.36101 5.792 1.45803 5.62654C1.55507 5.46108 1.69502 5.34189 1.87788 5.26897C2.47018 4.98067 3.08745 4.76725 3.72967 4.62871C4.37189 4.49017 5.02448 4.4209 5.68746 4.4209C6.5389 4.4209 7.37072 4.53729 8.18289 4.77007C8.99507 5.00283 9.76742 5.34638 10.5 5.80071C11.2325 5.34638 12.0048 5.00283 12.817 4.77007C13.6292 4.53729 14.461 4.4209 15.3125 4.4209C15.9754 4.4209 16.628 4.49017 17.2702 4.62871C17.9125 4.76725 18.5297 4.98067 19.122 5.26897C19.3049 5.34189 19.4448 5.46108 19.5419 5.62654C19.6389 5.792 19.6874 5.96896 19.6874 6.15742V15.6578C19.6874 16.0045 19.541 16.2695 19.2482 16.4529C18.9555 16.6363 18.6475 16.6562 18.3244 16.5127C17.8522 16.2883 17.3628 16.1184 16.8563 16.0028C16.3498 15.8873 15.8352 15.8295 15.3125 15.8295C14.6225 15.8295 13.9486 15.9162 13.2907 16.0895C12.6328 16.2628 12.0026 16.52 11.4002 16.861C11.2678 16.9317 11.1273 16.9883 10.9787 17.0309C10.83 17.0736 10.6705 17.0949 10.5 17.0949Z" fill="#808593"/>
</g>
</g>
</svg>
