<svg width="21" height="22" viewBox="0 0 21 22" fill="none" xmlns="http://www.w3.org/2000/svg">
<g id="call">
<mask id="mask0_1_3654" style="mask-type:alpha" maskUnits="userSpaceOnUse" x="0" y="0" width="21" height="22">
<rect id="Bounding box" y="0.5" width="21" height="21" fill="#D9D9D9"/>
</mask>
<g mask="url(#mask0_1_3654)">
<path id="call_2" d="M17.0103 18.4375C15.3613 18.4375 13.7047 18.0541 12.0405 17.2873C10.3763 16.5206 8.8459 15.4389 7.44927 14.0423C6.05825 12.6456 4.97937 11.1166 4.21262 9.45528C3.44587 7.7939 3.0625 6.1387 3.0625 4.48967C3.0625 4.22717 3.15 4.00702 3.325 3.82922C3.5 3.65141 3.71875 3.5625 3.98125 3.5625H6.83506C7.05606 3.5625 7.25097 3.63458 7.4198 3.77873C7.58863 3.92289 7.69604 4.10098 7.74202 4.31299L8.24346 6.88748C8.27824 7.12643 8.27095 7.33172 8.22159 7.50335C8.17224 7.67498 8.08361 7.81913 7.95572 7.93579L5.93482 9.90286C6.26014 10.4985 6.63174 11.062 7.04961 11.5931C7.46748 12.1243 7.91984 12.6316 8.40669 13.1151C8.88684 13.5953 9.39726 14.0412 9.93797 14.4529C10.4787 14.8646 11.0626 15.2477 11.6897 15.6022L13.6533 13.6216C13.7902 13.4792 13.956 13.3793 14.1506 13.3221C14.3452 13.2649 14.5474 13.2509 14.7572 13.2801L17.187 13.7748C17.408 13.8331 17.5883 13.9458 17.728 14.113C17.8676 14.2801 17.9375 14.4697 17.9375 14.6817V17.5187C17.9375 17.7812 17.8486 18 17.6707 18.175C17.4929 18.35 17.2728 18.4375 17.0103 18.4375Z" fill="#808593"/>
</g>
</g>
</svg>
