<svg width="22" height="22" viewBox="0 0 22 22" fill="none" xmlns="http://www.w3.org/2000/svg">
<g id="cancel">
<mask id="mask0_265_3129" style="mask-type:alpha" maskUnits="userSpaceOnUse" x="0" y="0" width="22" height="22">
<rect id="Bounding box" width="22" height="22" fill="#D9D9D9"/>
</mask>
<g mask="url(#mask0_265_3129)">
<path id="cancel_2" d="M10.9993 11.9663L13.8163 14.7833C13.9432 14.9102 14.1028 14.9752 14.2949 14.9781C14.4871 14.981 14.6495 14.9161 14.7823 14.7833C14.9151 14.6505 14.9815 14.4895 14.9815 14.3003C14.9815 14.1111 14.9151 13.9501 14.7823 13.8173L11.9653 11.0003L14.7823 8.1833C14.9092 8.05638 14.9742 7.89685 14.9771 7.7047C14.9801 7.51257 14.9151 7.35011 14.7823 7.21731C14.6495 7.0845 14.4885 7.0181 14.2993 7.0181C14.1101 7.0181 13.9491 7.0845 13.8163 7.21731L10.9993 10.0343L8.18232 7.21731C8.05541 7.09038 7.89588 7.02545 7.70373 7.02252C7.51159 7.01957 7.34913 7.0845 7.21634 7.21731C7.08353 7.35011 7.01712 7.5111 7.01712 7.7003C7.01712 7.8895 7.08353 8.0505 7.21634 8.1833L10.0333 11.0003L7.21634 13.8173C7.08941 13.9442 7.02448 14.1038 7.02154 14.2959C7.01859 14.488 7.08353 14.6505 7.21634 14.7833C7.34913 14.9161 7.51013 14.9825 7.69933 14.9825C7.88853 14.9825 8.04952 14.9161 8.18232 14.7833L10.9993 11.9663ZM11.0009 19.7086C9.79642 19.7086 8.66431 19.4801 7.60452 19.0229C6.54472 18.5658 5.62284 17.9455 4.83889 17.1619C4.05493 16.3783 3.43429 15.4568 2.97698 14.3975C2.51967 13.3382 2.29102 12.2063 2.29102 11.0018C2.29102 9.7974 2.51957 8.66529 2.97668 7.6055C3.43379 6.54569 4.05415 5.62382 4.83775 4.83987C5.62136 4.0559 6.54283 3.43527 7.60216 2.97796C8.66148 2.52065 9.79335 2.29199 10.9978 2.29199C12.2022 2.29199 13.3343 2.52055 14.3941 2.97766C15.4539 3.43477 16.3758 4.05512 17.1598 4.83872C17.9437 5.62233 18.5644 6.54381 19.0217 7.60314C19.479 8.66245 19.7076 9.79433 19.7076 10.9988C19.7076 12.2032 19.4791 13.3353 19.022 14.3951C18.5649 15.4549 17.9445 16.3768 17.1609 17.1607C16.3773 17.9447 15.4558 18.5653 14.3965 19.0227C13.3372 19.48 12.2053 19.7086 11.0009 19.7086Z" fill="#B7BECF"/>
</g>
</g>
</svg>
