<svg width="30" height="30" viewBox="0 0 30 30" fill="none" xmlns="http://www.w3.org/2000/svg">
<mask id="mask0_1_3229" style="mask-type:alpha" maskUnits="userSpaceOnUse" x="0" y="0" width="30" height="30">
<rect width="30" height="30" fill="#D9D9D9"/>
</mask>
<g mask="url(#mask0_1_3229)">
<path d="M13.25 19.8173L21.6538 11.4134L20.3365 10.0962L13.25 17.1827L9.68747 13.6202L8.37019 14.9375L13.25 19.8173ZM6.63463 25.6249C6.00321 25.6249 5.46875 25.4062 5.03125 24.9687C4.59375 24.5312 4.375 23.9967 4.375 23.3653V6.63463C4.375 6.00321 4.59375 5.46875 5.03125 5.03125C5.46875 4.59375 6.00321 4.375 6.63463 4.375H23.3653C23.9967 4.375 24.5312 4.59375 24.9687 5.03125C25.4062 5.46875 25.6249 6.00321 25.6249 6.63463V23.3653C25.6249 23.9967 25.4062 24.5312 24.9687 24.9687C24.5312 25.4062 23.9967 25.6249 23.3653 25.6249H6.63463Z" fill="#FF743D"/>
</g>
</svg>
