<svg width="22" height="22" viewBox="0 0 22 22" fill="none" xmlns="http://www.w3.org/2000/svg">
<mask id="mask0_71_5985" style="mask-type:alpha" maskUnits="userSpaceOnUse" x="0" y="0" width="22" height="22">
<rect width="22" height="22" fill="#D9D9D9"/>
</mask>
<g mask="url(#mask0_71_5985)">
<path d="M6.96194 11.0002L10.6815 14.7339C10.8084 14.8608 10.8757 15.018 10.8833 15.2054C10.891 15.3929 10.8237 15.5577 10.6815 15.6999C10.5487 15.8327 10.3877 15.8991 10.1985 15.8991C10.0093 15.8991 9.84829 15.8327 9.7155 15.6999L5.59579 11.5802C5.51 11.4944 5.44948 11.4039 5.41422 11.3087C5.37896 11.2135 5.36133 11.1107 5.36133 11.0002C5.36133 10.8898 5.37896 10.7869 5.41422 10.6918C5.44948 10.5966 5.51 10.5061 5.59579 10.4203L9.7155 6.30058C9.84241 6.17365 9.99959 6.10637 10.187 6.09873C10.3745 6.09109 10.5393 6.15837 10.6815 6.30058C10.8143 6.43337 10.8807 6.59437 10.8807 6.78357C10.8807 6.97277 10.8143 7.13377 10.6815 7.26656L6.96194 11.0002ZM12.7828 11.0002L16.5023 14.7339C16.6292 14.8608 16.6965 15.018 16.7042 15.2054C16.7118 15.3929 16.6445 15.5577 16.5023 15.6999C16.3695 15.8327 16.2085 15.8991 16.0193 15.8991C15.8301 15.8991 15.6691 15.8327 15.5363 15.6999L11.4166 11.5802C11.3308 11.4944 11.2703 11.4039 11.235 11.3087C11.1998 11.2135 11.1822 11.1107 11.1822 11.0002C11.1822 10.8898 11.1998 10.7869 11.235 10.6918C11.2703 10.5966 11.3308 10.5061 11.4166 10.4203L15.5363 6.30058C15.6632 6.17365 15.8204 6.10637 16.0079 6.09873C16.1953 6.09109 16.3601 6.15837 16.5023 6.30058C16.6351 6.43337 16.7015 6.59437 16.7015 6.78357C16.7015 6.97277 16.6351 7.13377 16.5023 7.26656L12.7828 11.0002Z" fill="#1E1E1E"/>
</g>
</svg>
