<svg width="22" height="22" viewBox="0 0 22 22" fill="none" xmlns="http://www.w3.org/2000/svg">
<mask id="mask0_71_6023" style="mask-type:alpha" maskUnits="userSpaceOnUse" x="0" y="0" width="22" height="22">
<rect width="22" height="22" fill="#D9D9D9"/>
</mask>
<g mask="url(#mask0_71_6023)">
<path d="M9.21691 10.9999L5.49736 7.26627C5.37043 7.13936 5.30314 6.98218 5.29551 6.79474C5.28787 6.6073 5.35515 6.44248 5.49736 6.30029C5.63015 6.16748 5.79115 6.10107 5.98035 6.10107C6.16956 6.10107 6.33057 6.16748 6.46336 6.30029L10.5831 10.42C10.6689 10.5058 10.7294 10.5963 10.7646 10.6915C10.7999 10.7866 10.8175 10.8895 10.8175 10.9999C10.8175 11.1104 10.7999 11.2132 10.7646 11.3084C10.7294 11.4036 10.6689 11.4941 10.5831 11.5799L6.46336 15.6996C6.33643 15.8265 6.17925 15.8938 5.99181 15.9015C5.80436 15.9091 5.63955 15.8418 5.49736 15.6996C5.36456 15.5668 5.29816 15.4058 5.29816 15.2166C5.29816 15.0274 5.36456 14.8664 5.49736 14.7336L9.21691 10.9999ZM15.0377 10.9999L11.3182 7.26627C11.1913 7.13936 11.124 6.98218 11.1163 6.79474C11.1087 6.6073 11.176 6.44248 11.3182 6.30029C11.451 6.16748 11.612 6.10107 11.8012 6.10107C11.9904 6.10107 12.1514 6.16748 12.2842 6.30029L16.4039 10.42C16.4897 10.5058 16.5502 10.5963 16.5854 10.6915C16.6207 10.7866 16.6383 10.8895 16.6383 10.9999C16.6383 11.1104 16.6207 11.2132 16.5854 11.3084C16.5502 11.4036 16.4897 11.4941 16.4039 11.5799L12.2842 15.6996C12.1573 15.8265 12.0001 15.8938 11.8126 15.9015C11.6252 15.9091 11.4604 15.8418 11.3182 15.6996C11.1854 15.5668 11.119 15.4058 11.119 15.2166C11.119 15.0274 11.1854 14.8664 11.3182 14.7336L15.0377 10.9999Z" fill="#1E1E1E"/>
</g>
</svg>
