<svg width="20" height="20" viewBox="0 0 20 20" fill="none" xmlns="http://www.w3.org/2000/svg">
<mask id="mask0_397_4411" style="mask-type:alpha" maskUnits="userSpaceOnUse" x="0" y="0" width="20" height="20">
<rect width="20" height="20" fill="#D9D9D9"/>
</mask>
<g mask="url(#mask0_397_4411)">
<path d="M10.0011 13.9424C10.1918 13.9424 10.3517 13.8779 10.4807 13.7489C10.6097 13.6199 10.6742 13.4601 10.6742 13.2694C10.6742 13.0787 10.6097 12.9188 10.4807 12.7898C10.3517 12.6608 10.1918 12.5963 10.0011 12.5963C9.81041 12.5963 9.65056 12.6608 9.52156 12.7898C9.39256 12.9188 9.32806 13.0787 9.32806 13.2694C9.32806 13.4601 9.39256 13.6199 9.52156 13.7489C9.65056 13.8779 9.81041 13.9424 10.0011 13.9424ZM10.0014 10.8976C10.1786 10.8976 10.327 10.8377 10.4466 10.7179C10.5663 10.5981 10.6261 10.4497 10.6261 10.2726V6.52256C10.6261 6.34549 10.5662 6.19706 10.4463 6.07727C10.3265 5.95748 10.178 5.89758 10.0008 5.89758C9.82368 5.89758 9.67527 5.95748 9.55562 6.07727C9.43597 6.19706 9.37614 6.34549 9.37614 6.52256V10.2726C9.37614 10.4497 9.43606 10.5981 9.55589 10.7179C9.67574 10.8377 9.82424 10.8976 10.0014 10.8976ZM10.0025 17.9168C8.90757 17.9168 7.87838 17.709 6.91493 17.2935C5.95147 16.8779 5.1134 16.3139 4.40072 15.6016C3.68803 14.8892 3.12381 14.0515 2.70808 13.0885C2.29234 12.1255 2.08447 11.0965 2.08447 10.0015C2.08447 8.90659 2.29225 7.8774 2.70781 6.91395C3.12336 5.9505 3.68732 5.11243 4.39968 4.39975C5.11206 3.68705 5.94976 3.12284 6.91279 2.7071C7.8758 2.29137 8.90478 2.0835 9.99972 2.0835C11.0947 2.0835 12.1239 2.29127 13.0873 2.70683C14.0508 3.12239 14.8888 3.68634 15.6015 4.3987C16.3142 5.11108 16.8784 5.94878 17.2942 6.91181C17.7099 7.87482 17.9178 8.9038 17.9178 9.99875C17.9178 11.0937 17.71 12.1229 17.2944 13.0863C16.8789 14.0498 16.3149 14.8879 15.6026 15.6005C14.8902 16.3132 14.0525 16.8774 13.0895 17.2932C12.1264 17.7089 11.0975 17.9168 10.0025 17.9168ZM10.0011 16.6668C11.8622 16.6668 13.4386 16.021 14.7303 14.7293C16.022 13.4376 16.6678 11.8613 16.6678 10.0001C16.6678 8.13903 16.022 6.56264 14.7303 5.27098C13.4386 3.97931 11.8622 3.33348 10.0011 3.33348C8.14001 3.33348 6.56362 3.97931 5.27195 5.27098C3.98029 6.56264 3.33445 8.13903 3.33445 10.0001C3.33445 11.8613 3.98029 13.4376 5.27195 14.7293C6.56362 16.021 8.14001 16.6668 10.0011 16.6668Z" fill="#FF5500"/>
</g>
</svg>
