<svg width="21" height="21" viewBox="0 0 21 21" fill="none" xmlns="http://www.w3.org/2000/svg">
<g id="arrow_forward_ios">
<mask id="mask0_1_3624" style="mask-type:alpha" maskUnits="userSpaceOnUse" x="0" y="0" width="21" height="21">
<rect id="Bounding box" width="21" height="21" fill="#D9D9D9"/>
</mask>
<g mask="url(#mask0_1_3624)">
<path id="arrow_forward_ios_2" d="M12.9772 10.5L6.3861 3.90887C6.21223 3.73499 6.12753 3.52802 6.132 3.28797C6.1365 3.04789 6.22568 2.84093 6.39956 2.66707C6.57343 2.49319 6.7804 2.40625 7.02046 2.40625C7.26051 2.40625 7.46748 2.49319 7.64136 2.66707L14.3402 9.37932C14.4983 9.53749 14.6156 9.71473 14.6918 9.91104C14.7681 10.1074 14.8063 10.3037 14.8063 10.5C14.8063 10.6963 14.7681 10.8926 14.6918 11.0889C14.6156 11.2852 14.4983 11.4625 14.3402 11.6206L7.6279 18.3329C7.45403 18.5068 7.2493 18.5915 7.01372 18.587C6.77816 18.5825 6.57343 18.4933 6.39956 18.3194C6.22568 18.1456 6.13874 17.9386 6.13874 17.6985C6.13874 17.4585 6.22568 17.2515 6.39956 17.0776L12.9772 10.5Z" fill="#808593"/>
</g>
</g>
</svg>
