<svg width="22" height="22" viewBox="0 0 22 22" fill="none" xmlns="http://www.w3.org/2000/svg">
<g id="key">
<mask id="mask0_265_3146" style="mask-type:alpha" maskUnits="userSpaceOnUse" x="0" y="0" width="22" height="22">
<rect id="Bounding box" width="22" height="22" fill="#D9D9D9"/>
</mask>
<g mask="url(#mask0_265_3146)">
<path id="key_2" d="M6.41664 12.4804C6.00945 12.4804 5.66085 12.3354 5.37086 12.0454C5.08089 11.7554 4.93591 11.4069 4.93591 10.9997C4.93591 10.5925 5.08089 10.2439 5.37086 9.95387C5.66085 9.6639 6.00945 9.51891 6.41664 9.51891C6.82384 9.51891 7.17244 9.6639 7.46242 9.95387C7.7524 10.2439 7.89738 10.5925 7.89738 10.9997C7.89738 11.4069 7.7524 11.7554 7.46242 12.0454C7.17244 12.3354 6.82384 12.4804 6.41664 12.4804ZM6.41664 16.0413C5.01619 16.0413 3.82581 15.5513 2.84549 14.5714C1.86516 13.5915 1.375 12.4016 1.375 11.0017C1.375 9.60185 1.86516 8.41126 2.84549 7.42997C3.82581 6.44866 5.01619 5.95801 6.41664 5.95801C7.39911 5.95801 8.28757 6.21157 9.08201 6.71868C9.87646 7.22578 10.4829 7.88889 10.9012 8.70801H18.8075C18.9154 8.70801 19.02 8.72799 19.1211 8.76796C19.2223 8.80791 19.3158 8.87079 19.4016 8.95659L20.8647 10.4197C20.9505 10.5055 21.011 10.5964 21.0463 10.6923C21.0815 10.7883 21.0991 10.8911 21.0991 11.0008C21.0991 11.1105 21.0815 11.213 21.0463 11.3081C21.011 11.4033 20.9505 11.4938 20.8647 11.5796L18.4391 13.9964C18.3704 14.0675 18.288 14.1243 18.1919 14.1669C18.0958 14.2095 18.0001 14.2356 17.905 14.245C17.8098 14.2544 17.7146 14.2453 17.6194 14.2176C17.5242 14.19 17.4337 14.1439 17.3479 14.0793L16.2179 13.2296L14.9381 14.1797C14.8676 14.235 14.7924 14.2749 14.7125 14.2996C14.6326 14.3243 14.5497 14.3366 14.4639 14.3366C14.3781 14.3366 14.2929 14.3228 14.2083 14.2952C14.1237 14.2676 14.0462 14.2291 13.9756 14.1797L12.6835 13.2913H10.9012C10.4829 14.1045 9.87646 14.7662 9.08201 15.2762C8.28757 15.7863 7.39911 16.0413 6.41664 16.0413ZM6.41664 14.6663C7.29571 14.6663 8.05696 14.4007 8.70038 13.8695C9.3438 13.3383 9.76365 12.6873 9.9599 11.9163H13.1154L14.4357 12.8295C14.4299 12.8295 14.4284 12.8318 14.4313 12.8365C14.4343 12.8412 14.4357 12.8389 14.4357 12.8295L16.2268 11.5197L17.7833 12.7096L19.4933 10.9997L18.5766 10.083H9.9599C9.76365 9.31205 9.3438 8.66098 8.70038 8.12977C8.05696 7.59858 7.29571 7.33299 6.41664 7.33299C5.40831 7.33299 4.54512 7.69201 3.82706 8.41007C3.109 9.12812 2.74998 9.99132 2.74998 10.9997C2.74998 12.008 3.109 12.8712 3.82706 13.5892C4.54512 14.3073 5.40831 14.6663 6.41664 14.6663Z" fill="#808593"/>
</g>
</g>
</svg>
