<svg width="22" height="22" viewBox="0 0 22 22" fill="none" xmlns="http://www.w3.org/2000/svg">
<mask id="mask0_71_5989" style="mask-type:alpha" maskUnits="userSpaceOnUse" x="0" y="0" width="22" height="22">
<rect width="22" height="22" fill="#D9D9D9"/>
</mask>
<g mask="url(#mask0_71_5989)">
<path d="M9.58259 11L13.3162 14.7337C13.4432 14.8606 13.5081 15.0201 13.511 15.2123C13.514 15.4044 13.4491 15.5669 13.3162 15.6997C13.1834 15.8325 13.0225 15.8989 12.8333 15.8989C12.6441 15.8989 12.4831 15.8325 12.3503 15.6997L8.23055 11.58C8.14475 11.4942 8.08423 11.4037 8.04899 11.3085C8.01372 11.2133 7.99609 11.1105 7.99609 11C7.99609 10.8895 8.01372 10.7867 8.04899 10.6915C8.08423 10.5963 8.14475 10.5058 8.23055 10.4201L12.3503 6.30036C12.4772 6.17343 12.6367 6.1085 12.8289 6.10556C13.021 6.10262 13.1834 6.16755 13.3162 6.30036C13.4491 6.43315 13.5155 6.59415 13.5155 6.78335C13.5155 6.97255 13.4491 7.13354 13.3162 7.26634L9.58259 11Z" fill="#1E1E1E"/>
</g>
</svg>
