<svg width="current" height="current" viewBox="0 0 25 24" fill="none" xmlns="http://www.w3.org/2000/svg">
<g id="thumb_up">
<mask id="mask0_172_6161" style="mask-type:alpha" maskUnits="userSpaceOnUse" x="0" y="0" width="25" height="24">
<rect id="Bounding box" x="0.5" width="24" height="24" fill="#D9D9D9"/>
</mask>
<g mask="url(#mask0_172_6161)">
<path id="thumb_up_2" d="M21.1923 8.49965C21.6679 8.49965 22.0881 8.68202 22.4528 9.04677C22.8176 9.41151 23 9.8317 23 10.3073V11.9227C23 12.0276 22.9865 12.1401 22.9596 12.2601C22.9326 12.38 22.9025 12.4919 22.8692 12.5958L20.0034 19.3584C19.8601 19.6782 19.6198 19.9483 19.2827 20.1688C18.9455 20.3893 18.5937 20.4996 18.2272 20.4996H7.71153V8.49965L13.5288 2.73237C13.7275 2.53366 13.9577 2.41506 14.2192 2.3766C14.4807 2.33813 14.7314 2.38301 14.9711 2.51122C15.2108 2.63942 15.3865 2.82146 15.498 3.05735C15.6096 3.29325 15.6333 3.53747 15.5692 3.79002L14.4923 8.49965H21.1923ZM9.2115 9.1381V18.9996H18.2307C18.3012 18.9996 18.3734 18.9804 18.4471 18.9419C18.5208 18.9035 18.5769 18.8393 18.6154 18.7496L21.5 11.9996V10.3073C21.5 10.2176 21.4711 10.1439 21.4134 10.0862C21.3557 10.0285 21.282 9.99962 21.1923 9.99962H12.5961L13.85 4.51885L9.2115 9.1381ZM4.8077 20.4996C4.31058 20.4996 3.88503 20.3226 3.53102 19.9686C3.17701 19.6146 3 19.189 3 18.6919V10.3073C3 9.81023 3.17701 9.38467 3.53102 9.03067C3.88503 8.67666 4.31058 8.49965 4.8077 8.49965H7.71153V9.99962H4.8077C4.71795 9.99962 4.64423 10.0285 4.58653 10.0862C4.52883 10.1439 4.49998 10.2176 4.49998 10.3073V18.6919C4.49998 18.7816 4.52883 18.8554 4.58653 18.9131C4.64423 18.9708 4.71795 18.9996 4.8077 18.9996H7.71153V20.4996H4.8077Z" fill="#808593"/>
</g>
</g>
</svg>