<svg width="13" height="13" viewBox="0 0 13 13" fill="none" xmlns="http://www.w3.org/2000/svg">
<mask id="mask0_71_1776" style="mask-type:alpha" maskUnits="userSpaceOnUse" x="0" y="0" width="13" height="13">
<rect width="13" height="13" fill="#D9D9D9"/>
</mask>
<g mask="url(#mask0_71_1776)">
<path d="M11.2077 4.98658C11.4653 4.98658 11.6929 5.08678 11.8905 5.28718C12.088 5.48756 12.1868 5.71842 12.1868 5.97974V6.86722C12.1868 6.92488 12.1795 6.98667 12.1649 7.05258C12.1504 7.11848 12.134 7.17996 12.116 7.23701L10.5637 10.9524C10.486 11.1281 10.3559 11.2765 10.1733 11.3977C9.99064 11.5188 9.80008 11.5794 9.60158 11.5794H3.90559V4.98658L7.05663 1.81801C7.16427 1.70884 7.28892 1.64368 7.43058 1.62255C7.57225 1.60142 7.70801 1.62607 7.83786 1.69651C7.96772 1.76695 8.06285 1.86696 8.12327 1.99656C8.18369 2.12616 8.19654 2.26034 8.16181 2.39909L7.57848 4.98658H11.2077ZM4.71808 5.33735V10.7553H9.60349C9.64169 10.7553 9.68075 10.7448 9.72068 10.7236C9.76062 10.7025 9.79101 10.6673 9.81184 10.618L11.3743 6.90949V5.97974C11.3743 5.93043 11.3587 5.88993 11.3275 5.85823C11.2962 5.82653 11.2563 5.81068 11.2077 5.81068H6.55142L7.23059 2.79951L4.71808 5.33735ZM2.33269 11.5794C2.06341 11.5794 1.8329 11.4822 1.64115 11.2877C1.4494 11.0932 1.35352 10.8594 1.35352 10.5863V5.97974C1.35352 5.70662 1.4494 5.47282 1.64115 5.27833C1.8329 5.08383 2.06341 4.98658 2.33269 4.98658H3.90559V5.81068H2.33269C2.28407 5.81068 2.24414 5.82653 2.21288 5.85823C2.18163 5.88993 2.166 5.93043 2.166 5.97974V10.5863C2.166 10.6356 2.18163 10.6761 2.21288 10.7078C2.24414 10.7395 2.28407 10.7553 2.33269 10.7553H3.90559V11.5794H2.33269Z" fill="#808593"/>
</g>
</svg>
