<svg width="25" height="24" viewBox="0 0 25 24" fill="none" xmlns="http://www.w3.org/2000/svg">
<g id="thumb_up">
<mask id="mask0_1_4884" style="mask-type:alpha" maskUnits="userSpaceOnUse" x="0" y="0" width="25" height="24">
<rect id="Bounding box" x="0.5" width="24" height="24" fill="#D9D9D9"/>
</mask>
<g mask="url(#mask0_1_4884)">
<path id="thumb_up_2" d="M20.6923 9.15253C21.1679 9.15253 21.5881 9.33504 21.9529 9.70006C22.3176 10.0651 22.5 10.4856 22.5 10.9616V12.5781C22.5 12.682 22.4891 12.7943 22.4673 12.9149C22.4455 13.0355 22.4128 13.1478 22.3692 13.2517L19.5038 20.0182C19.3602 20.339 19.1198 20.6097 18.7827 20.8304C18.4455 21.051 18.0949 21.1614 17.7308 21.1614H9.63461C9.13589 21.1614 8.70993 20.9846 8.35673 20.6312C8.00351 20.2777 7.82691 19.8514 7.82691 19.3523V9.90116C7.82691 9.65997 7.87626 9.42807 7.97498 9.20547C8.0737 8.98287 8.20511 8.78946 8.36923 8.62524L13.6596 3.36557C13.8583 3.17698 14.0884 3.06087 14.35 3.01724C14.6115 2.97363 14.8621 3.01276 15.1019 3.13465C15.3416 3.25653 15.5147 3.4355 15.6211 3.67158C15.7275 3.90763 15.7487 4.15845 15.6846 4.42403L14.6076 9.15253H20.6923ZM4.30773 21.1614C3.80901 21.1614 3.38306 20.9846 3.02986 20.6312C2.67664 20.2777 2.50003 19.8514 2.50003 19.3523V10.9616C2.50003 10.4625 2.67664 10.0362 3.02986 9.68275C3.38306 9.32927 3.80901 9.15253 4.30773 9.15253H4.51928C5.018 9.15253 5.44396 9.32927 5.79716 9.68275C6.15036 10.0362 6.32696 10.4625 6.32696 10.9616V19.362C6.32696 19.8611 6.15036 20.2857 5.79716 20.636C5.44396 20.9862 5.018 21.1614 4.51928 21.1614H4.30773Z" fill="#FF743D"/>
</g>
</g>
</svg>
