<svg width="22" height="21" viewBox="0 0 22 21" fill="none" xmlns="http://www.w3.org/2000/svg">
<g id="logout">
<mask id="mask0_227_671" style="mask-type:alpha" maskUnits="userSpaceOnUse" x="0" y="0" width="22" height="21">
<rect id="Bounding box" x="0.5" width="21" height="21" fill="#D9D9D9"/>
</mask>
<g mask="url(#mask0_227_671)">
<path id="logout_2" d="M5.14424 17.9375C4.70225 17.9375 4.32812 17.7843 4.02187 17.4781C3.71563 17.1718 3.5625 16.7977 3.5625 16.3557V4.64424C3.5625 4.20225 3.71563 3.82813 4.02187 3.52188C4.32812 3.21563 4.70225 3.0625 5.14424 3.0625H10.3521C10.5384 3.0625 10.6943 3.12533 10.8199 3.25098C10.9456 3.37661 11.0084 3.53254 11.0084 3.71875C11.0084 3.90496 10.9456 4.06089 10.8199 4.18653C10.6943 4.31216 10.5384 4.37498 10.3521 4.37498H5.14424C5.07692 4.37498 5.01521 4.40302 4.95911 4.45911C4.90302 4.51521 4.87498 4.57692 4.87498 4.64424V16.3557C4.87498 16.423 4.90302 16.4847 4.95911 16.5408C5.01521 16.5969 5.07692 16.625 5.14424 16.625H10.3521C10.5384 16.625 10.6943 16.6878 10.8199 16.8134C10.9456 16.9391 11.0084 17.095 11.0084 17.2812C11.0084 17.4674 10.9456 17.6233 10.8199 17.749C10.6943 17.8746 10.5384 17.9375 10.3521 17.9375H5.14424ZM15.9152 11.1562H9.11536C8.92914 11.1562 8.77322 11.0934 8.64758 10.9678C8.52193 10.8421 8.45911 10.6862 8.45911 10.5C8.45911 10.3138 8.52193 10.1578 8.64758 10.0322C8.77322 9.90657 8.92914 9.84375 9.11536 9.84375H15.9152L14.2324 8.16106C14.1113 8.0399 14.0493 7.89211 14.0465 7.71768C14.0437 7.54324 14.1057 7.38816 14.2324 7.25242C14.3592 7.11669 14.5129 7.04658 14.6935 7.04209C14.8741 7.0376 15.0323 7.10322 15.168 7.23896L17.8754 9.94639C18.0336 10.1046 18.1127 10.2891 18.1127 10.5C18.1127 10.7109 18.0336 10.8954 17.8754 11.0536L15.168 13.761C15.0379 13.8911 14.8834 13.9553 14.7044 13.9537C14.5255 13.952 14.3682 13.8833 14.2324 13.7475C14.1057 13.6118 14.0446 13.4559 14.049 13.2798C14.0535 13.1036 14.1192 12.9522 14.2459 12.8254L15.9152 11.1562Z" fill="#808593"/>
</g>
</g>
</svg>
