<svg width="255" height="57" viewBox="0 0 255 57" fill="none" xmlns="http://www.w3.org/2000/svg">
<path d="M105.284 16.716V23.448C103.436 25.45 100.356 26.528 96.374 26.528C89.818 26.528 85.66 23.646 85.66 18.3C85.66 12.954 89.818 10.072 96.352 10.072C100.246 10.072 103.062 11.238 104.8 12.756L100.642 15.902C99.322 14.912 98.244 14.56 96.616 14.56C93.404 14.56 91.908 16.012 91.908 18.3C91.908 20.632 93.47 22.128 96.616 22.128C97.738 22.128 98.596 21.974 99.608 21.556V20.346H95.736V16.716H105.284ZM113.07 26H107.13V9.72H113.07V26ZM122.947 26.528C117.865 26.528 114.587 23.998 114.587 19.84C114.587 15.682 117.865 13.152 122.947 13.152C128.029 13.152 131.307 15.682 131.307 19.84C131.307 23.998 128.029 26.528 122.947 26.528ZM122.947 22.216C124.575 22.216 125.719 21.336 125.719 19.84C125.719 18.344 124.575 17.464 122.947 17.464C121.341 17.464 120.175 18.344 120.175 19.84C120.175 21.336 121.341 22.216 122.947 22.216ZM143.309 13.24C147.115 13.24 149.667 15.682 149.667 19.84C149.667 23.998 147.115 26.44 143.309 26.44C141.549 26.44 139.943 25.934 138.755 24.526V26H132.815V9.72H138.755V15.154C139.943 13.746 141.549 13.24 143.309 13.24ZM141.505 22.26C143.177 22.26 144.079 21.292 144.079 19.84C144.079 18.388 143.177 17.42 141.505 17.42C140.559 17.42 139.547 17.728 138.755 18.74V20.94C139.547 21.952 140.559 22.26 141.505 22.26ZM158.351 13.196C163.367 13.196 166.315 15.308 166.315 19.07V23.712C166.315 24.592 166.469 25.296 166.821 26H160.881C160.661 25.758 160.507 25.406 160.507 25.076V25.01C159.583 25.912 158.021 26.44 156.151 26.44C153.643 26.44 150.519 25.45 150.519 22.37C150.519 19.29 153.643 18.3 156.151 18.3C158.021 18.3 159.583 18.828 160.507 19.73V18.982C160.507 17.794 159.297 17.046 157.097 17.046C155.953 17.046 154.369 17.244 152.785 17.904L151.795 14.274C153.599 13.548 156.305 13.196 158.351 13.196ZM160.595 22.436V22.304C159.891 21.556 158.835 21.358 158.065 21.358C157.185 21.358 156.239 21.622 156.239 22.37C156.239 23.118 157.185 23.382 158.065 23.382C158.835 23.382 159.891 23.184 160.595 22.436ZM174.279 26H168.339V9.72H174.279V26ZM95.362 41.726C100.62 42.166 104.36 43.134 104.36 46.896C104.36 50.328 101.346 52.528 95.56 52.528C91.49 52.528 87.882 51.494 85.33 49.668L88.278 46.28C89.994 47.446 92.678 48.37 95.648 48.37C97.452 48.37 98.31 48.106 98.31 47.556C98.31 47.028 97.716 46.786 95.142 46.566C90.28 46.148 86.034 45.026 86.034 41.418C86.034 37.964 89.796 36.072 94.9 36.072C98.09 36.072 101.39 36.798 103.722 38.25L100.928 41.66C99.146 40.582 97.144 40.164 94.922 40.164C93.58 40.164 92.084 40.296 92.084 40.89C92.084 41.396 93.14 41.55 95.362 41.726ZM113.692 52.528C108.61 52.528 105.332 49.998 105.332 45.84C105.332 41.682 108.61 39.152 113.692 39.152C118.774 39.152 122.052 41.682 122.052 45.84C122.052 49.998 118.774 52.528 113.692 52.528ZM113.692 48.216C115.32 48.216 116.464 47.336 116.464 45.84C116.464 44.344 115.32 43.464 113.692 43.464C112.086 43.464 110.92 44.344 110.92 45.84C110.92 47.336 112.086 48.216 113.692 48.216ZM131.326 52.528C126.244 52.528 122.966 49.998 122.966 45.84C122.966 41.682 126.244 39.152 131.326 39.152C136.408 39.152 139.686 41.682 139.686 45.84C139.686 49.998 136.408 52.528 131.326 52.528ZM131.326 48.216C132.954 48.216 134.098 47.336 134.098 45.84C134.098 44.344 132.954 43.464 131.326 43.464C129.72 43.464 128.554 44.344 128.554 45.84C128.554 47.336 129.72 48.216 131.326 48.216ZM151.402 52L148.762 48.018L147.134 49.646V52H141.194V35.72H147.134V44.102L151.072 39.68H157.386L152.656 44.784L157.628 52H151.402ZM178.156 39.24C181.61 39.24 183.37 41.484 183.37 44.608V52H177.43V44.938C177.43 44.058 176.924 43.42 175.978 43.42C175.186 43.42 174.482 43.86 173.8 44.96V52H167.86V44.938C167.86 44.058 167.354 43.42 166.408 43.42C165.616 43.42 164.912 43.86 164.23 44.96V52H158.29V39.68H164.23V41.352C165.286 39.922 166.694 39.24 168.586 39.24C171.028 39.24 172.634 40.362 173.36 42.122C174.13 40.538 175.67 39.24 178.156 39.24ZM194.741 39.68H200.659L192.629 56.4H186.711L189.263 51.406L183.455 39.68H189.461L192.189 46.192L194.741 39.68ZM211.21 39.68H217.15V52H211.21V50.372C210.088 51.758 208.592 52.44 206.678 52.44C203.29 52.44 201.288 50.218 201.288 47.094V39.68H207.228V46.742C207.228 47.622 207.844 48.26 208.856 48.26C209.67 48.26 210.418 47.864 211.21 46.808V39.68ZM225.209 52H219.269V39.68H225.209V41.308C226.331 39.922 227.827 39.24 229.741 39.24C233.129 39.24 235.131 41.462 235.131 44.586V52H229.191V44.938C229.191 44.058 228.575 43.42 227.563 43.42C226.749 43.42 226.001 43.816 225.209 44.872V52ZM253.353 39.68V49.338C253.353 55.3 248.425 56.84 244.443 56.84C242.155 56.84 239.317 56.334 237.623 55.52L238.987 51.978C239.889 52.484 241.913 52.99 243.695 52.99C246.445 52.99 247.413 51.802 247.413 50.482V49.646C246.225 51.054 244.597 51.56 242.859 51.56C239.053 51.56 236.501 49.316 236.501 45.4C236.501 41.462 239.053 39.24 242.859 39.24C244.619 39.24 246.225 39.746 247.413 41.154V39.68H253.353ZM244.553 47.512C245.631 47.512 246.621 47.028 247.413 46.06V44.74C246.621 43.772 245.631 43.288 244.553 43.288C242.947 43.288 242.089 44.168 242.089 45.4C242.089 46.61 242.947 47.512 244.553 47.512Z" fill="#FF743D"/>
<path d="M20.2408 7.8996C22.4222 7.8996 24.1906 6.13121 24.1906 3.9498C24.1906 1.76838 22.4222 0 20.2408 0C18.0594 0 16.291 1.76838 16.291 3.9498C16.291 6.13121 18.0594 7.8996 20.2408 7.8996Z" fill="#FFA87D"/>
<path d="M62.5631 7.8996C64.7445 7.8996 66.5129 6.13121 66.5129 3.9498C66.5129 1.76838 64.7445 0 62.5631 0C60.3817 0 58.6133 1.76838 58.6133 3.9498C58.6133 6.13121 60.3817 7.8996 62.5631 7.8996Z" fill="#FFA87D"/>
<path d="M36.0629 34.8741C35.6844 32.3262 34.4291 30.0901 32.2917 28.6043C30.3594 27.261 27.9647 26.66 25.6114 26.708C24.5799 26.7293 23.5405 26.8732 22.5864 27.265C21.9334 27.5329 21.2858 28.0526 21.419 28.8335C21.5989 29.8889 23.1807 30.0768 23.9989 30.2953C26.0258 30.8364 27.9527 32.1863 28.9522 34.0559C30.8098 37.534 28.6817 40.9441 25.9045 43.1095C25.5567 43.38 25.1983 43.6386 24.8331 43.8864C23.3593 44.8859 21.7255 45.5628 20.0598 45.8147C19.2416 45.9386 18.4314 45.9599 17.6371 45.9093C17.4519 45.8973 17.2627 45.8933 17.0814 45.8653C16.9322 45.844 16.6723 45.8254 16.5324 45.7974L15.9914 45.7054C15.8448 45.6681 15.3211 45.5602 15.2011 45.5149L14.9426 45.4402L14.8134 45.4029C14.792 45.3963 14.7694 45.3909 14.7481 45.3843C14.6988 45.3643 14.4882 45.2936 14.4336 45.2723L14.1804 45.1844L13.9352 45.0818C13.7726 45.0111 13.606 44.9498 13.4514 44.8672C13.3262 44.8019 13.093 44.6993 12.9797 44.63L12.524 44.3702C12.3787 44.2742 12.2321 44.1796 12.0842 44.0863C11.9176 43.9731 11.7231 43.8211 11.5578 43.7025C11.4472 43.6093 11.27 43.4627 11.1581 43.3707C11.1314 43.3507 11.0848 43.3081 11.0608 43.2841C10.9662 43.1935 10.7769 43.0202 10.6823 42.9296C10.573 42.8164 10.3918 42.6178 10.2812 42.5072C10.1719 42.3739 10.016 42.1954 9.90542 42.0621C9.78815 41.9022 9.63224 41.7036 9.5203 41.5411C8.64079 40.2711 8.05178 38.7733 7.7866 37.1862C7.56938 35.7789 7.58804 34.2891 7.86655 32.8073C7.90653 32.5541 7.99182 32.2276 8.04245 31.9731C8.16372 31.516 8.29432 31.0496 8.45156 30.5992C8.53951 30.374 8.6128 30.1461 8.70609 29.9222L8.76206 29.7889L8.87399 29.5211C9.42569 28.2538 10.1546 27.0385 11.0195 25.9124C13.6833 22.5103 17.3853 20.2329 21.415 19.3934C25.0343 18.6325 28.6643 19.1615 31.624 20.718C31.8612 20.8473 32.1717 21.0098 32.4009 21.1498L32.6621 21.2977C33.3138 21.7334 34.2692 21.7028 35.0515 21.1084C36.0003 20.3915 36.3068 19.1429 35.7337 18.3193L35.5219 18.0142C35.318 17.717 35.0594 17.4078 34.8316 17.132C34.4998 16.7575 34.1466 16.4017 33.7762 16.0619C29.1068 11.8176 21.3337 11.2673 14.6574 14.3615C10.3705 16.2965 6.53796 19.5866 3.91275 23.5324C-0.642054 30.366 -1.24838 38.612 2.24168 44.682C2.53618 45.223 2.97327 45.8573 3.33174 46.3531C3.50897 46.5929 3.76483 46.8994 3.94873 47.1313C4.12863 47.3325 4.3605 47.5977 4.54307 47.7976C4.70431 47.9642 5.01614 48.2667 5.17338 48.4292C5.36261 48.5971 5.64512 48.8583 5.83835 49.0262C5.96361 49.1248 6.25944 49.3687 6.38071 49.4633L6.53662 49.5873C6.58993 49.6272 6.64456 49.6659 6.69787 49.7045C6.93907 49.8724 7.08698 49.9924 7.35084 50.1656C7.89054 50.5147 8.50353 50.8919 9.08854 51.177C9.56694 51.4209 10.0693 51.6408 10.5704 51.846L10.9555 51.9873L11.342 52.1272C11.6271 52.2271 12.0429 52.3444 12.3281 52.4337C13.1689 52.6615 14.1164 52.8588 15.0013 52.968C15.3877 53.0293 15.8861 53.0547 16.2739 53.0946C16.4165 53.104 16.5604 53.1066 16.703 53.1133L17.1334 53.1293C21.1858 53.2452 25.3835 52.0992 29.1707 49.8431C29.2147 49.8165 29.2587 49.7898 29.304 49.7632V49.7552C29.3413 49.5966 30.7565 48.7264 30.9671 48.5398C31.5934 47.9868 32.1784 47.3632 32.6781 46.6995C35.1101 43.468 36.6706 38.9958 36.0589 34.8794L36.0629 34.8741Z" fill="url(#paint0_linear_34_4663)"/>
<path d="M78.5988 25.4351C78.1244 23.235 77.2555 21.1828 76.0429 19.3851L75.5711 18.7281L75.5112 18.6468L75.4485 18.5682C75.3073 18.3923 75.0834 18.1151 74.9408 17.9406L74.8062 17.79L74.537 17.4915C73.2244 16.0589 71.6493 14.8623 69.8916 13.9534C69.5904 13.8109 69.2759 13.6443 68.9641 13.511L68.583 13.3511L68.2019 13.1912C67.8101 13.0566 67.4263 12.8967 67.0199 12.7848L66.6188 12.6648C66.4842 12.6249 66.3522 12.5835 66.2136 12.5516L65.3928 12.3543L64.5572 12.1971C64.2494 12.1385 63.8043 12.0918 63.4978 12.0465L63.3912 12.0332L63.2833 12.0239C61.4283 11.8386 59.5014 11.8839 57.5745 12.1731C54.9559 12.5676 52.32 13.4644 49.8801 14.809C43.4663 18.311 38.7076 24.5209 35.0763 30.5029C34.955 30.7028 34.8337 30.9053 34.7112 31.1106C35.9092 33.1934 36.3676 36.1251 35.7945 39.3766C34.987 43.9541 32.3578 47.9039 29.2422 49.7309V49.7389C34.5006 46.594 38.6929 41.7726 41.8965 36.6981C44.1459 33.1494 46.2248 29.5261 48.7527 26.2173C51.5751 22.5527 54.6867 19.9341 59.1243 19.5983C59.3881 19.5797 59.7173 19.565 59.9784 19.561C60.0824 19.565 60.2809 19.565 60.3942 19.5677C60.4688 19.5677 60.6021 19.569 60.6714 19.573L60.9446 19.5916C61.0125 19.597 61.303 19.6103 61.355 19.6223C61.5589 19.6503 61.8281 19.6756 62.0266 19.7102L62.5557 19.8049C62.8129 19.8715 63.0767 19.9208 63.3286 19.9994L63.5818 20.0754C63.831 20.1473 64.0788 20.2473 64.3254 20.3339C64.5532 20.4338 64.8184 20.5404 65.0356 20.6524L65.2662 20.7683C65.4088 20.835 65.5767 20.9376 65.7166 21.0188C65.9431 21.1428 66.1497 21.2934 66.3656 21.4306C66.4335 21.4733 66.5028 21.5359 66.5708 21.5825C66.6801 21.6665 66.8773 21.8037 66.9732 21.8944C67.1585 22.0503 67.3757 22.2288 67.5409 22.4021L67.7248 22.5766C67.8274 22.6913 68.01 22.8805 68.1126 22.9938C68.1885 23.0897 68.3152 23.2376 68.3938 23.3362L68.4751 23.4335L68.5497 23.5361C68.6097 23.6174 68.7562 23.8213 68.8109 23.8932L68.8455 23.9466L69.12 24.373C69.2027 24.5209 69.2853 24.6688 69.3692 24.8154C69.9263 25.8548 70.298 27.0115 70.4926 28.2162C70.6405 29.2476 70.6632 30.319 70.5446 31.3984C70.5206 31.5783 70.4979 31.7595 70.4753 31.9394L70.3793 32.4818L70.3567 32.6177L70.326 32.7523C69.1773 38.2119 64.8384 42.9413 59.4214 44.8949C55.1478 46.4647 50.6703 46.2142 47.015 44.5151C46.8377 44.4285 46.6552 44.3445 46.4726 44.2579L46.2048 44.1193L45.9289 43.9834C44.2112 42.9746 41.8872 45.1667 42.8973 46.9178L43.0958 47.2363C44.1352 48.8527 45.5585 50.152 47.2362 51.1381C56.3431 56.3565 69.3293 51.2793 75.5378 41.1157C75.795 40.7066 76.0242 40.2841 76.2587 39.8644C76.3693 39.6511 76.5839 39.2261 76.6932 39.0115C76.8171 38.765 76.9743 38.4012 77.0903 38.148C77.4114 37.4257 77.6819 36.6901 77.9271 35.9519C78.0138 35.6973 78.1164 35.3216 78.1923 35.063C79.1078 31.8128 79.2318 28.4814 78.5974 25.4337L78.5988 25.4351Z" fill="url(#paint1_linear_34_4663)"/>
<g style="mix-blend-mode:multiply" opacity="0.5">
<path d="M20.2408 7.8996C22.4222 7.8996 24.1906 6.13121 24.1906 3.9498C24.1906 1.76838 22.4222 0 20.2408 0C18.0594 0 16.291 1.76838 16.291 3.9498C16.291 6.13121 18.0594 7.8996 20.2408 7.8996Z" fill="#FF9F69"/>
<path d="M62.5631 7.8996C64.7445 7.8996 66.5129 6.13121 66.5129 3.9498C66.5129 1.76838 64.7445 0 62.5631 0C60.3817 0 58.6133 1.76838 58.6133 3.9498C58.6133 6.13121 60.3817 7.8996 62.5631 7.8996Z" fill="#FF9F69"/>
<path d="M36.0629 34.8741C35.6844 32.3262 34.4291 30.0901 32.2917 28.6043C30.3594 27.261 27.9647 26.66 25.6114 26.708C24.5799 26.7293 23.5405 26.8732 22.5864 27.265C21.9334 27.5329 21.2858 28.0526 21.419 28.8335C21.5989 29.8889 23.1807 30.0768 23.9989 30.2953C26.0258 30.8364 27.9527 32.1863 28.9522 34.0559C30.8098 37.534 28.6817 40.9441 25.9045 43.1095C25.5567 43.38 25.1983 43.6386 24.8331 43.8864C23.3593 44.8859 21.7255 45.5628 20.0598 45.8147C19.2416 45.9386 18.4314 45.9599 17.6371 45.9093C17.4519 45.8973 17.2627 45.8933 17.0814 45.8653C16.9322 45.844 16.6723 45.8254 16.5324 45.7974L15.9914 45.7054C15.8448 45.6681 15.3211 45.5602 15.2011 45.5149L14.9426 45.4402L14.8134 45.4029C14.792 45.3963 14.7694 45.3909 14.7481 45.3843C14.6988 45.3643 14.4882 45.2936 14.4336 45.2723L14.1804 45.1844L13.9352 45.0818C13.7726 45.0111 13.606 44.9498 13.4514 44.8672C13.3262 44.8019 13.093 44.6993 12.9797 44.63L12.524 44.3702C12.3787 44.2742 12.2321 44.1796 12.0842 44.0863C11.9176 43.9731 11.7231 43.8211 11.5578 43.7025C11.4472 43.6093 11.27 43.4627 11.1581 43.3707C11.1314 43.3507 11.0848 43.3081 11.0608 43.2841C10.9662 43.1935 10.7769 43.0202 10.6823 42.9296C10.573 42.8164 10.3918 42.6178 10.2812 42.5072C10.1719 42.3739 10.016 42.1954 9.90542 42.0621C9.78815 41.9022 9.63224 41.7036 9.5203 41.5411C8.64079 40.2711 8.05178 38.7733 7.7866 37.1862C7.56938 35.7789 7.58804 34.2891 7.86655 32.8073C7.90653 32.5541 7.99182 32.2276 8.04245 31.9731C8.16372 31.516 8.29432 31.0496 8.45156 30.5992C8.53951 30.374 8.6128 30.1461 8.70609 29.9222L8.76206 29.7889L8.87399 29.5211C9.42569 28.2538 10.1546 27.0385 11.0195 25.9124C13.6833 22.5103 17.3853 20.2329 21.415 19.3934C25.0343 18.6325 28.6643 19.1615 31.624 20.718C31.8612 20.8473 32.1717 21.0098 32.4009 21.1498L32.6621 21.2977C33.3138 21.7334 34.2692 21.7028 35.0515 21.1084C36.0003 20.3915 36.3068 19.1429 35.7337 18.3193L35.5219 18.0142C35.318 17.717 35.0594 17.4078 34.8316 17.132C34.4998 16.7575 34.1466 16.4017 33.7762 16.0619C29.1068 11.8176 21.3337 11.2673 14.6574 14.3615C10.3705 16.2965 6.53796 19.5866 3.91275 23.5324C-0.642054 30.366 -1.24838 38.612 2.24168 44.682C2.53618 45.223 2.97327 45.8573 3.33174 46.3531C3.50897 46.5929 3.76483 46.8994 3.94873 47.1313C4.12863 47.3325 4.3605 47.5977 4.54307 47.7976C4.70431 47.9642 5.01614 48.2667 5.17338 48.4292C5.36261 48.5971 5.64512 48.8583 5.83835 49.0262C5.96361 49.1248 6.25944 49.3687 6.38071 49.4633L6.53662 49.5873C6.58993 49.6272 6.64456 49.6659 6.69787 49.7045C6.93907 49.8724 7.08698 49.9924 7.35084 50.1656C7.89054 50.5147 8.50353 50.8919 9.08854 51.177C9.56694 51.4209 10.0693 51.6408 10.5704 51.846L10.9555 51.9873L11.342 52.1272C11.6271 52.2271 12.0429 52.3444 12.3281 52.4337C13.1689 52.6615 14.1164 52.8588 15.0013 52.968C15.3877 53.0293 15.8861 53.0547 16.2739 53.0946C16.4165 53.104 16.5604 53.1066 16.703 53.1133L17.1334 53.1293C21.1858 53.2452 25.3835 52.0992 29.1707 49.8431C29.2147 49.8165 29.2587 49.7898 29.304 49.7632V49.7552C29.3413 49.5966 30.7565 48.7264 30.9671 48.5398C31.5934 47.9868 32.1784 47.3632 32.6781 46.6995C35.1101 43.468 36.6706 38.9958 36.0589 34.8794L36.0629 34.8741Z" fill="#FF9F69"/>
<path d="M78.5988 25.4351C78.1244 23.235 77.2555 21.1828 76.0429 19.3851L75.5711 18.7281L75.5112 18.6468L75.4485 18.5682C75.3073 18.3923 75.0834 18.1151 74.9408 17.9406L74.8062 17.79L74.537 17.4915C73.2244 16.0589 71.6493 14.8623 69.8916 13.9534C69.5904 13.8109 69.2759 13.6443 68.9641 13.511L68.583 13.3511L68.2019 13.1912C67.8101 13.0566 67.4263 12.8967 67.0199 12.7848L66.6188 12.6648C66.4842 12.6249 66.3522 12.5835 66.2136 12.5516L65.3928 12.3543L64.5572 12.1971C64.2494 12.1385 63.8043 12.0918 63.4978 12.0465L63.3912 12.0332L63.2833 12.0239C61.4283 11.8386 59.5014 11.8839 57.5745 12.1731C54.9559 12.5676 52.32 13.4644 49.8801 14.809C43.4663 18.311 38.7076 24.5209 35.0763 30.5029C34.955 30.7028 34.8337 30.9053 34.7112 31.1106C35.9092 33.1934 36.3676 36.1251 35.7945 39.3766C34.987 43.9541 32.3578 47.9039 29.2422 49.7309V49.7389C34.5006 46.594 38.6929 41.7726 41.8965 36.6981C44.1459 33.1494 46.2248 29.5261 48.7527 26.2173C51.5751 22.5527 54.6867 19.9341 59.1243 19.5983C59.3881 19.5797 59.7173 19.565 59.9784 19.561C60.0824 19.565 60.2809 19.565 60.3942 19.5677C60.4688 19.5677 60.6021 19.569 60.6714 19.573L60.9446 19.5916C61.0125 19.597 61.303 19.6103 61.355 19.6223C61.5589 19.6503 61.8281 19.6756 62.0266 19.7102L62.5557 19.8049C62.8129 19.8715 63.0767 19.9208 63.3286 19.9994L63.5818 20.0754C63.831 20.1473 64.0788 20.2473 64.3254 20.3339C64.5532 20.4338 64.8184 20.5404 65.0356 20.6524L65.2662 20.7683C65.4088 20.835 65.5767 20.9376 65.7166 21.0188C65.9431 21.1428 66.1497 21.2934 66.3656 21.4306C66.4335 21.4733 66.5028 21.5359 66.5708 21.5825C66.6801 21.6665 66.8773 21.8037 66.9732 21.8944C67.1585 22.0503 67.3757 22.2288 67.5409 22.4021L67.7248 22.5766C67.8274 22.6913 68.01 22.8805 68.1126 22.9938C68.1885 23.0897 68.3152 23.2376 68.3938 23.3362L68.4751 23.4335L68.5497 23.5361C68.6097 23.6174 68.7562 23.8213 68.8109 23.8932L68.8455 23.9466L69.12 24.373C69.2027 24.5209 69.2853 24.6688 69.3692 24.8154C69.9263 25.8548 70.298 27.0115 70.4926 28.2162C70.6405 29.2476 70.6632 30.319 70.5446 31.3984C70.5206 31.5783 70.4979 31.7595 70.4753 31.9394L70.3793 32.4818L70.3567 32.6177L70.326 32.7523C69.1773 38.2119 64.8384 42.9413 59.4214 44.8949C55.1478 46.4647 50.6703 46.2142 47.015 44.5151C46.8377 44.4285 46.6552 44.3445 46.4726 44.2579L46.2048 44.1193L45.9289 43.9834C44.2112 42.9746 41.8872 45.1667 42.8973 46.9178L43.0958 47.2363C44.1352 48.8527 45.5585 50.152 47.2362 51.1381C56.3431 56.3565 69.3293 51.2793 75.5378 41.1157C75.795 40.7066 76.0242 40.2841 76.2587 39.8644C76.3693 39.6511 76.5839 39.2261 76.6932 39.0115C76.8171 38.765 76.9743 38.4012 77.0903 38.148C77.4114 37.4257 77.6819 36.6901 77.9271 35.9519C78.0138 35.6973 78.1164 35.3216 78.1923 35.063C79.1078 31.8128 79.2318 28.4814 78.5974 25.4337L78.5988 25.4351Z" fill="#FF9F69"/>
</g>
<defs>
<linearGradient id="paint0_linear_34_4663" x1="11.9216" y1="32.7606" x2="48.7785" y2="32.7606" gradientUnits="userSpaceOnUse">
<stop offset="0.01" stop-color="#FF743D"/>
<stop offset="0.12" stop-color="#FF8451"/>
<stop offset="0.28" stop-color="#FF9869"/>
<stop offset="0.43" stop-color="#FFA378"/>
<stop offset="0.55" stop-color="#FFA87D"/>
</linearGradient>
<linearGradient id="paint1_linear_34_4663" x1="43.9034" y1="32.5658" x2="90.3802" y2="32.5658" gradientUnits="userSpaceOnUse">
<stop offset="0.01" stop-color="#FF743D"/>
<stop offset="0.12" stop-color="#FF8451"/>
<stop offset="0.28" stop-color="#FF9869"/>
<stop offset="0.43" stop-color="#FFA378"/>
<stop offset="0.55" stop-color="#FFA87D"/>
</linearGradient>
</defs>
</svg>
