<svg width="39" height="39" viewBox="0 0 39 39" fill="none" xmlns="http://www.w3.org/2000/svg">
<g id="manage_search">
<mask id="mask0_1_8677" style="mask-type:alpha" maskUnits="userSpaceOnUse" x="0" y="0" width="39" height="39">
<rect id="Bounding box" width="39" height="39" fill="#D9D9D9"/>
</mask>
<g mask="url(#mask0_1_8677)">
<path id="manage_search_2" d="M5.28076 30.0311C4.93545 30.0311 4.646 29.9143 4.4124 29.6806C4.17881 29.4469 4.06201 29.1573 4.06201 28.8119C4.06201 28.4664 4.17881 28.177 4.4124 27.9437C4.646 27.7104 4.93545 27.5937 5.28076 27.5937H18.7339C19.0792 27.5937 19.3687 27.7106 19.6023 27.9442C19.8358 28.1779 19.9526 28.4675 19.9526 28.813C19.9526 29.1584 19.8358 29.4478 19.6023 29.6812C19.3687 29.9145 19.0792 30.0311 18.7339 30.0311H5.28076ZM5.28076 22.078C4.93545 22.078 4.646 21.9612 4.4124 21.7275C4.17881 21.4938 4.06201 21.2042 4.06201 20.8588C4.06201 20.5133 4.17881 20.2239 4.4124 19.9906C4.646 19.7573 4.93545 19.6406 5.28076 19.6406H10.5308C10.8761 19.6406 11.1655 19.7574 11.3991 19.9911C11.6327 20.2248 11.7495 20.5144 11.7495 20.8599C11.7495 21.2053 11.6327 21.4947 11.3991 21.728C11.1655 21.9614 10.8761 22.078 10.5308 22.078H5.28076ZM5.28076 14.1249C4.93545 14.1249 4.646 14.0081 4.4124 13.7744C4.17881 13.5407 4.06201 13.2511 4.06201 12.9057C4.06201 12.5602 4.17881 12.2708 4.4124 12.0375C4.646 11.8041 4.93545 11.6875 5.28076 11.6875H10.5308C10.8761 11.6875 11.1655 11.8043 11.3991 12.038C11.6327 12.2717 11.7495 12.5613 11.7495 12.9068C11.7495 13.2522 11.6327 13.5416 11.3991 13.7749C11.1655 14.0082 10.8761 14.1249 10.5308 14.1249H5.28076ZM22.6869 25.203C20.6509 25.203 18.9153 24.4916 17.4802 23.0687C16.0452 21.6458 15.3276 19.9171 15.3276 17.8828C15.3276 15.8484 16.0455 14.1198 17.4813 12.6969C18.9171 11.274 20.6535 10.5625 22.6906 10.5625C24.7278 10.5625 26.463 11.274 27.8963 12.6969C29.3296 14.1198 30.0463 15.8458 30.0463 17.875C30.0463 18.6291 29.9286 19.3713 29.6932 20.1015C29.4577 20.8317 29.1098 21.501 28.6494 22.1093L34.0807 27.4937C34.3161 27.7152 34.4338 27.9972 34.4338 28.3395C34.4338 28.6819 34.3161 28.9708 34.0807 29.2062C33.8592 29.4312 33.5772 29.5437 33.2349 29.5437C32.8925 29.5437 32.6036 29.4312 32.3682 29.2062L26.9369 23.8218C26.3182 24.2718 25.6437 24.6145 24.9135 24.8499C24.1833 25.0853 23.4411 25.203 22.6869 25.203ZM22.6869 22.7656C24.0541 22.7656 25.2163 22.2916 26.1733 21.3437C27.1303 20.3958 27.6088 19.2422 27.6088 17.8828C27.6088 16.5234 27.1303 15.3698 26.1733 14.4218C25.2163 13.4739 24.0541 13 22.6869 13C21.3198 13 20.1577 13.4739 19.2006 14.4218C18.2436 15.3698 17.7651 16.5234 17.7651 17.8828C17.7651 19.2422 18.2436 20.3958 19.2006 21.3437C20.1577 22.2916 21.3198 22.7656 22.6869 22.7656Z" fill="#1E1E1E"/>
</g>
</g>
</svg>
