<svg width="32" height="32" viewBox="0 0 32 32" fill="none" xmlns="http://www.w3.org/2000/svg">
<g id="&#235;&#141;&#148;&#235;&#179;&#180;&#234;&#184;&#176;">
<mask id="mask0_1_4534" style="mask-type:alpha" maskUnits="userSpaceOnUse" x="0" y="0" width="32" height="32">
<rect id="Bounding box" width="32" height="32" fill="#D9D9D9"/>
</mask>
<g mask="url(#mask0_1_4534)">
<path id="more_horiz" d="M7.99798 18.0029C7.448 18.0029 6.97718 17.8069 6.58551 17.415C6.19387 17.023 5.99805 16.5518 5.99805 16.0014C5.99805 15.4511 6.19387 14.9799 6.58551 14.5879C6.97718 14.196 7.448 14 7.99798 14C8.54798 14 9.0188 14.196 9.41045 14.5879C9.80211 14.9799 9.99795 15.4511 9.99795 16.0014C9.99795 16.5518 9.80211 17.023 9.41045 17.415C9.0188 17.8069 8.54798 18.0029 7.99798 18.0029ZM15.6903 18.0029C15.1403 18.0029 14.6695 17.8069 14.2778 17.415C13.8861 17.023 13.6903 16.5518 13.6903 16.0014C13.6903 15.4511 13.8861 14.9799 14.2778 14.5879C14.6695 14.196 15.1403 14 15.6903 14C16.2403 14 16.7111 14.196 17.1027 14.5879C17.4944 14.9799 17.6902 15.4511 17.6902 16.0014C17.6902 16.5518 17.4944 17.023 17.1027 17.415C16.7111 17.8069 16.2403 18.0029 15.6903 18.0029ZM23.3826 18.0029C22.8326 18.0029 22.3618 17.8069 21.9701 17.415C21.5784 17.023 21.3826 16.5518 21.3826 16.0014C21.3826 15.4511 21.5784 14.9799 21.9701 14.5879C22.3618 14.196 22.8326 14 23.3826 14C23.9326 14 24.4034 14.196 24.795 14.5879C25.1867 14.9799 25.3825 15.4511 25.3825 16.0014C25.3825 16.5518 25.1867 17.023 24.795 17.415C24.4034 17.8069 23.9326 18.0029 23.3826 18.0029Z" fill="#50545E"/>
</g>
</g>
</svg>
