<svg width="22" height="22" viewBox="0 0 22 22" fill="none" xmlns="http://www.w3.org/2000/svg">
<mask id="mask0_71_6020" style="mask-type:alpha" maskUnits="userSpaceOnUse" x="0" y="0" width="22" height="22">
<rect width="22" height="22" fill="#D9D9D9"/>
</mask>
<g mask="url(#mask0_71_6020)">
<path d="M11.8665 10.9999L8.13281 7.26627C8.00588 7.13936 7.94095 6.97983 7.93802 6.78768C7.93507 6.59555 8 6.43308 8.13281 6.30029C8.2656 6.16748 8.4266 6.10107 8.6158 6.10107C8.805 6.10107 8.966 6.16748 9.09879 6.30029L13.2185 10.42C13.3043 10.5058 13.3648 10.5963 13.4001 10.6915C13.4353 10.7866 13.453 10.8895 13.453 10.9999C13.453 11.1104 13.4353 11.2132 13.4001 11.3084C13.3648 11.4036 13.3043 11.4941 13.2185 11.5799L9.09879 15.6996C8.97188 15.8265 8.81235 15.8915 8.6202 15.8944C8.42807 15.8973 8.2656 15.8324 8.13281 15.6996C8 15.5668 7.93359 15.4058 7.93359 15.2166C7.93359 15.0274 8 14.8664 8.13281 14.7336L11.8665 10.9999Z" fill="#1E1E1E"/>
</g>
</svg>
