<svg width="22" height="22" viewBox="0 0 22 22" fill="none" xmlns="http://www.w3.org/2000/svg">
<g id="school">
<mask id="mask0_1_3633" style="mask-type:alpha" maskUnits="userSpaceOnUse" x="0" y="0" width="22" height="22">
<rect id="Bounding box" width="22" height="22" fill="#D9D9D9"/>
</mask>
<g mask="url(#mask0_1_3633)">
<path id="school_2" d="M5.90689 15.4298C5.6366 15.2793 5.42477 15.0764 5.27141 14.8209C5.11804 14.5655 5.04135 14.2789 5.04135 13.9614V9.98444L3.21157 8.9726C3.06115 8.88681 2.95068 8.78244 2.88017 8.65949C2.80967 8.53653 2.77441 8.39991 2.77441 8.24962C2.77441 8.09935 2.80967 7.96281 2.88017 7.84001C2.95068 7.71719 3.06115 7.61289 3.21157 7.52711L10.2104 3.71377C10.3347 3.64469 10.4626 3.59399 10.5943 3.56167C10.7259 3.52935 10.8611 3.51318 10.9997 3.51318C11.1383 3.51318 11.2734 3.52935 11.4051 3.56167C11.5367 3.59399 11.6648 3.64461 11.7893 3.71354L19.6938 8.01539C19.8348 8.09178 19.943 8.1951 20.0182 8.32536C20.0934 8.45561 20.131 8.59614 20.131 8.74696V14.1553C20.131 14.35 20.0651 14.5133 19.9333 14.6451C19.8014 14.7769 19.6381 14.8427 19.4432 14.8427C19.2483 14.8427 19.0851 14.7769 18.9535 14.6451C18.8218 14.5133 18.756 14.35 18.756 14.1553V9.01137L16.958 9.98444V13.9614C16.958 14.2789 16.8813 14.5655 16.7279 14.8209C16.5746 15.0764 16.3627 15.2793 16.0924 15.4298L11.7912 17.7549C11.6654 17.8254 11.5367 17.8768 11.4051 17.9092C11.2734 17.9415 11.1383 17.9576 10.9997 17.9576C10.8611 17.9576 10.7259 17.9415 10.5943 17.9092C10.4626 17.8768 10.3339 17.8254 10.2082 17.7549L5.90689 15.4298ZM10.8939 11.5886C10.935 11.6121 10.9718 11.6239 11.0041 11.6239C11.0364 11.6239 11.0731 11.6121 11.1142 11.5886L17.27 8.24985L11.1142 4.9199C11.0731 4.89639 11.0364 4.88463 11.0041 4.88463C10.9718 4.88463 10.935 4.89639 10.8939 4.9199L4.72932 8.24985L10.8939 11.5886ZM10.8851 16.565C10.9262 16.5885 10.9644 16.6003 10.9997 16.6003C11.0349 16.6003 11.0731 16.5885 11.1142 16.565L15.4508 14.2223C15.4978 14.1929 15.5316 14.1591 15.5522 14.1209C15.5727 14.0827 15.583 14.0342 15.583 13.9754V10.7178L11.8053 12.7926C11.6795 12.8631 11.5491 12.9145 11.4139 12.9469C11.2788 12.9792 11.1407 12.9953 10.9997 12.9953C10.8586 12.9953 10.7205 12.9792 10.5854 12.9469C10.4503 12.9145 10.3198 12.8631 10.1941 12.7926L6.41633 10.7178V13.9754C6.41633 14.0225 6.42661 14.068 6.44718 14.1121C6.46776 14.1561 6.50155 14.1929 6.54856 14.2223L10.8851 16.565Z" fill="#808593"/>
</g>
</g>
</svg>
