<svg width="20" height="20" viewBox="0 0 20 20" fill="none" xmlns="http://www.w3.org/2000/svg">
<mask id="mask0_397_3092" style="mask-type:alpha" maskUnits="userSpaceOnUse" x="0" y="0" width="20" height="20">
<rect width="20" height="20" fill="#D9D9D9"/>
</mask>
<g mask="url(#mask0_397_3092)">
<path d="M8.81843 11.7886L6.88251 9.85273C6.76714 9.73734 6.62211 9.67831 6.44743 9.67564C6.27275 9.67296 6.12505 9.73199 6.00433 9.85273C5.8836 9.97345 5.82324 10.1198 5.82324 10.2918C5.82324 10.4638 5.8836 10.6102 6.00433 10.7309L8.29118 13.0177C8.44182 13.1684 8.61757 13.2437 8.81843 13.2437C9.01928 13.2437 9.19502 13.1684 9.34566 13.0177L13.9819 8.38154C14.0973 8.26616 14.1563 8.12114 14.159 7.94646C14.1616 7.77177 14.1026 7.62407 13.9819 7.50335C13.8611 7.38263 13.7148 7.32227 13.5428 7.32227C13.3708 7.32227 13.2244 7.38263 13.1037 7.50335L8.81843 11.7886ZM10.0025 17.9168C8.90757 17.9168 7.87838 17.709 6.91493 17.2935C5.95147 16.8779 5.1134 16.3139 4.40072 15.6016C3.68803 14.8892 3.12381 14.0515 2.70808 13.0885C2.29234 12.1255 2.08447 11.0965 2.08447 10.0015C2.08447 8.90659 2.29225 7.8774 2.70781 6.91395C3.12336 5.9505 3.68732 5.11243 4.39968 4.39975C5.11206 3.68705 5.94976 3.12284 6.91279 2.7071C7.8758 2.29137 8.90478 2.0835 9.99972 2.0835C11.0947 2.0835 12.1239 2.29127 13.0873 2.70683C14.0508 3.12239 14.8888 3.68634 15.6015 4.3987C16.3142 5.11108 16.8784 5.94878 17.2942 6.91181C17.7099 7.87482 17.9178 8.9038 17.9178 9.99875C17.9178 11.0937 17.71 12.1229 17.2944 13.0863C16.8789 14.0498 16.3149 14.8879 15.6026 15.6005C14.8902 16.3132 14.0525 16.8774 13.0895 17.2932C12.1264 17.7089 11.0975 17.9168 10.0025 17.9168ZM10.0011 16.6668C11.8622 16.6668 13.4386 16.021 14.7303 14.7293C16.022 13.4376 16.6678 11.8613 16.6678 10.0001C16.6678 8.13903 16.022 6.56264 14.7303 5.27098C13.4386 3.97931 11.8622 3.33348 10.0011 3.33348C8.14001 3.33348 6.56362 3.97931 5.27195 5.27098C3.98029 6.56264 3.33445 8.13903 3.33445 10.0001C3.33445 11.8613 3.98029 13.4376 5.27195 14.7293C6.56362 16.021 8.14001 16.6668 10.0011 16.6668Z" fill="#0FC02C"/>
</g>
</svg>
