<svg width="30" height="30" viewBox="0 0 30 30" fill="none" xmlns="http://www.w3.org/2000/svg">
<mask id="mask0_1_3319" style="mask-type:alpha" maskUnits="userSpaceOnUse" x="0" y="0" width="30" height="30">
<rect width="30" height="30" fill="#D9D9D9"/>
</mask>
<g mask="url(#mask0_1_3319)">
<path d="M13.2503 17.25L10.5628 14.5625C10.3336 14.3333 10.042 14.2188 9.68781 14.2188C9.33364 14.2188 9.04197 14.3333 8.81281 14.5625C8.58364 14.7917 8.46906 15.0833 8.46906 15.4375C8.46906 15.7917 8.58364 16.0833 8.81281 16.3125L12.3753 19.875C12.6253 20.125 12.917 20.25 13.2503 20.25C13.5836 20.25 13.8753 20.125 14.1253 19.875L21.1878 12.8125C21.417 12.5833 21.5316 12.2917 21.5316 11.9375C21.5316 11.5833 21.417 11.2917 21.1878 11.0625C20.9586 10.8333 20.667 10.7188 20.3128 10.7188C19.9586 10.7188 19.667 10.8333 19.4378 11.0625L13.2503 17.25ZM15.0003 27.5C13.2711 27.5 11.6461 27.1719 10.1253 26.5156C8.60447 25.8594 7.28156 24.9688 6.15656 23.8438C5.03156 22.7188 4.14093 21.3958 3.48468 19.875C2.82843 18.3542 2.50031 16.7292 2.50031 15C2.50031 13.2708 2.82843 11.6458 3.48468 10.125C4.14093 8.60417 5.03156 7.28125 6.15656 6.15625C7.28156 5.03125 8.60447 4.14063 10.1253 3.48438C11.6461 2.82812 13.2711 2.5 15.0003 2.5C16.7295 2.5 18.3545 2.82812 19.8753 3.48438C21.3961 4.14063 22.7191 5.03125 23.8441 6.15625C24.9691 7.28125 25.8597 8.60417 26.5159 10.125C27.1722 11.6458 27.5003 13.2708 27.5003 15C27.5003 16.7292 27.1722 18.3542 26.5159 19.875C25.8597 21.3958 24.9691 22.7188 23.8441 23.8438C22.7191 24.9688 21.3961 25.8594 19.8753 26.5156C18.3545 27.1719 16.7295 27.5 15.0003 27.5ZM15.0003 25C17.792 25 20.1566 24.0312 22.0941 22.0938C24.0316 20.1562 25.0003 17.7917 25.0003 15C25.0003 12.2083 24.0316 9.84375 22.0941 7.90625C20.1566 5.96875 17.792 5 15.0003 5C12.2086 5 9.84406 5.96875 7.90656 7.90625C5.96906 9.84375 5.00031 12.2083 5.00031 15C5.00031 17.7917 5.96906 20.1562 7.90656 22.0938C9.84406 24.0312 12.2086 25 15.0003 25Z" fill="#CFD5E3"/>
</g>
</svg>
