<svg width="23" height="22" viewBox="0 0 23 22" fill="none" xmlns="http://www.w3.org/2000/svg">
<mask id="mask0_1_9192" style="mask-type:alpha" maskUnits="userSpaceOnUse" x="0" y="0" width="23" height="22">
<rect x="0.5" width="22" height="22" fill="#D9D9D9"/>
</mask>
<g mask="url(#mask0_1_9192)">
<path d="M11.4993 11.9663L14.3163 14.7833C14.4432 14.9102 14.6028 14.9752 14.7949 14.9781C14.9871 14.981 15.1495 14.9161 15.2823 14.7833C15.4151 14.6505 15.4815 14.4895 15.4815 14.3003C15.4815 14.1111 15.4151 13.9501 15.2823 13.8173L12.4653 11.0003L15.2823 8.1833C15.4092 8.05638 15.4742 7.89685 15.4771 7.7047C15.4801 7.51257 15.4151 7.35011 15.2823 7.21731C15.1495 7.0845 14.9885 7.0181 14.7993 7.0181C14.6101 7.0181 14.4491 7.0845 14.3163 7.21731L11.4993 10.0343L8.68232 7.21731C8.55541 7.09038 8.39588 7.02545 8.20373 7.02252C8.01159 7.01957 7.84913 7.0845 7.71634 7.21731C7.58353 7.35011 7.51712 7.5111 7.51712 7.7003C7.51712 7.8895 7.58353 8.0505 7.71634 8.1833L10.5333 11.0003L7.71634 13.8173C7.58941 13.9442 7.52448 14.1038 7.52154 14.2959C7.51859 14.488 7.58353 14.6505 7.71634 14.7833C7.84913 14.9161 8.01013 14.9825 8.19933 14.9825C8.38853 14.9825 8.54952 14.9161 8.68232 14.7833L11.4993 11.9663ZM11.5009 19.7086C10.2964 19.7086 9.16431 19.4801 8.10452 19.0229C7.04472 18.5658 6.12284 17.9455 5.33889 17.1619C4.55493 16.3783 3.93429 15.4568 3.47698 14.3975C3.01967 13.3382 2.79102 12.2063 2.79102 11.0018C2.79102 9.7974 3.01957 8.66529 3.47668 7.6055C3.93379 6.54569 4.55415 5.62382 5.33775 4.83987C6.12136 4.0559 7.04283 3.43527 8.10216 2.97796C9.16148 2.52065 10.2934 2.29199 11.4978 2.29199C12.7022 2.29199 13.8343 2.52055 14.8941 2.97766C15.9539 3.43477 16.8758 4.05512 17.6598 4.83872C18.4437 5.62233 19.0644 6.54381 19.5217 7.60314C19.979 8.66245 20.2076 9.79433 20.2076 10.9988C20.2076 12.2032 19.9791 13.3353 19.522 14.3951C19.0649 15.4549 18.4445 16.3768 17.6609 17.1607C16.8773 17.9447 15.9558 18.5653 14.8965 19.0227C13.8372 19.48 12.7053 19.7086 11.5009 19.7086Z" fill="#B7BECF"/>
</g>
</svg>
