<svg width="22" height="22" viewBox="0 0 22 22" fill="none" xmlns="http://www.w3.org/2000/svg">
<mask id="mask0_71_3128" style="mask-type:alpha" maskUnits="userSpaceOnUse" x="0" y="0" width="22" height="22">
<rect width="22" height="22" fill="#D9D9D9"/>
</mask>
<g mask="url(#mask0_71_3128)">
<path d="M11.001 10.7179C10.1187 10.7179 9.36339 10.4037 8.73509 9.77544C8.10679 9.14714 7.79264 8.39186 7.79264 7.50958C7.79264 6.62729 8.10679 5.872 8.73509 5.24372C9.36339 4.61542 10.1187 4.30127 11.001 4.30127C11.8832 4.30127 12.6385 4.61542 13.2668 5.24372C13.8951 5.872 14.2093 6.62729 14.2093 7.50958C14.2093 8.39186 13.8951 9.14714 13.2668 9.77544C12.6385 10.4037 11.8832 10.7179 11.001 10.7179ZM4.12598 16.306V15.6608C4.12598 15.2119 4.24791 14.7962 4.49177 14.4137C4.73562 14.0311 5.06144 13.737 5.46924 13.5314C6.37533 13.0871 7.28936 12.754 8.21131 12.5319C9.13326 12.3098 10.0631 12.1987 11.001 12.1987C11.9388 12.1987 12.8686 12.3098 13.7906 12.5319C14.7126 12.754 15.6266 13.0871 16.5327 13.5314C16.9405 13.737 17.2663 14.0311 17.5101 14.4137C17.754 14.7962 17.8759 15.2119 17.8759 15.6608V16.306C17.8759 16.6927 17.7405 17.0214 17.4696 17.2923C17.1987 17.5632 16.87 17.6986 16.4833 17.6986H5.51858C5.13194 17.6986 4.80319 17.5632 4.53231 17.2923C4.26142 17.0214 4.12598 16.6927 4.12598 16.306ZM5.50095 16.3237H16.501V15.6608C16.501 15.4751 16.4472 15.3033 16.3396 15.1452C16.2321 14.9871 16.0861 14.8582 15.9016 14.7583C15.1119 14.3693 14.3066 14.0746 13.4858 13.8742C12.6649 13.6738 11.8367 13.5737 11.001 13.5737C10.1652 13.5737 9.33696 13.6738 8.51615 13.8742C7.69533 14.0746 6.89006 14.3693 6.10032 14.7583C5.91581 14.8582 5.76979 14.9871 5.66226 15.1452C5.55472 15.3033 5.50095 15.4751 5.50095 15.6608V16.3237ZM11.001 9.34291C11.5051 9.34291 11.9367 9.1634 12.2957 8.80437C12.6548 8.44534 12.8343 8.01375 12.8343 7.50958C12.8343 7.00541 12.6548 6.57382 12.2957 6.21479C11.9367 5.85576 11.5051 5.67625 11.001 5.67625C10.4968 5.67625 10.0652 5.85576 9.70616 6.21479C9.34713 6.57382 9.16762 7.00541 9.16762 7.50958C9.16762 8.01375 9.34713 8.44534 9.70616 8.80437C10.0652 9.1634 10.4968 9.34291 11.001 9.34291Z" fill="#808593"/>
</g>
</svg>
